<svg id="Capa_1" enable-background="new 0 0 512 512" height="512" viewBox="0 0 512 512" width="512" xmlns="http://www.w3.org/2000/svg"><path d="m154.704 161.107-25.468-25.468c-3.56-3.56-3.56-9.333 0-12.893l85.137-85.137c3.56-3.56 9.333-3.56 12.893 0l25.468 25.468z" fill="#efd0c1"/><path d="m321.475 327.878-25.468-25.468 98.029-98.03 25.468 25.468c3.56 3.56 3.56 9.333 0 12.893l-85.137 85.137c-3.559 3.561-9.332 3.561-12.892 0z" fill="#efd0c1"/><g fill="#e0a083"><path d="m394.037 204.381-98.03 98.03s-4.266-45.559-50.573-91.866c-46.299-46.299-90.733-49.44-90.733-49.44l98.03-98.03s4.266 45.559 50.573 91.866c46.3 46.299 90.733 49.44 90.733 49.44z"/><path d="m303.301 154.937c-5.423-5.423-10.264-10.831-14.586-16.16l23.181-21.89c7.887-7.446 20.261-7.273 27.935.401 3.833 3.833 5.793 8.847 5.864 13.877.071 5.045-1.747 10.107-5.47 14.05l-22 23.291c-4.912-4.045-9.91-8.555-14.924-13.569z"/><path d="m18.711 438.409c-11.854-11.854-11.571-31.155.614-42.663l208.678-200.806c5.723 4.557 11.563 9.737 17.427 15.601 6.289 6.289 11.799 12.555 16.624 18.702l-200.68 208.552c-11.508 12.185-30.817 12.461-42.663.614z"/><path d="m288.037 425.696h213.963v51.292h-213.963z"/></g><path d="m310.871 425.696 19.834-29.953c4.382-5.513 11.04-8.726 18.083-8.726h94.402c6.94 0 13.512 3.12 17.899 8.498l20.542 30.182h-170.76z" fill="#5c90ae"/><path d="m286.051 303.343c.204 2.29 1.262 4.515 2.885 6.139l25.468 25.468c7.369 7.368 19.667 7.368 27.036 0l85.137-85.137c7.367-7.368 7.368-19.667 0-27.035l-25.468-25.468c-1.676-1.676-3.959-2.713-6.321-2.901-.338-.027-28.137-2.555-61.718-27.054l14.427-15.273c11.015-11.667 10.752-30.516-.594-41.864-11.576-11.576-29.968-11.839-41.872-.601l-15.108 14.267c-23.975-33.319-27.178-61.212-27.233-61.731-.213-2.297-1.253-4.514-2.884-6.145l-25.468-25.468c-7.369-7.368-19.667-7.369-27.036 0l-85.137 85.137c-7.453 7.454-7.452 19.582.001 27.035l25.468 25.468c1.73 1.661 3.955 2.734 6.363 2.901.324.023 26.259 2.151 58.603 24.806l-200.141 192.59c-7.876 7.439-12.3 17.502-12.455 28.334-.154 10.83 3.978 21.011 11.636 28.669 7.518 7.518 17.471 11.637 28.083 11.637.195 0 .391-.001.587-.004 10.834-.155 20.896-4.577 28.333-12.452 3.792-4.015 3.611-10.344-.404-14.136-4.016-3.792-10.345-3.611-14.136.404-3.695 3.912-8.695 6.109-14.079 6.186-5.404.091-10.44-1.975-14.242-5.777-3.804-3.804-5.857-8.861-5.78-14.241.077-5.383 2.275-10.383 6.257-14.145l202.218-194.59c7.199 6.299 13.958 13.114 20.194 20.368l-133.264 138.49c-3.83 3.979-3.708 10.31.272 14.139 3.979 3.829 10.309 3.708 14.139-.272l131.203-136.35c22.053 32.042 24.999 58.303 25.03 58.606zm-24.686-90.483c-5.692-6.382-11.746-12.446-18.128-18.139-26.622-23.762-51.891-34.63-68.444-39.561l72.185-72.185c4.916 16.079 15.416 40.56 37.524 66.365 6.08 7.099 12.609 13.826 19.532 20.105 27.16 24.684 53.058 35.86 69.914 40.881l-72.188 72.188c-5.089-16.648-16.164-42.303-39.915-69.111-.159-.181-.319-.362-.48-.543zm66.557 107.322-17.772-17.771 83.887-83.887 17.771 17.772zm-9.161-196.024c3.98-3.758 10.128-3.67 14 .201 1.856 1.856 2.899 4.324 2.936 6.948.037 2.63-.937 5.132-2.741 7.042l-15.425 16.33c-5.275-4.783-10.299-9.843-15.041-15.156zm-97.942-78.852 17.769 17.769-83.887 83.887-17.77-17.77z"/><path d="m502 415.696h-15.08l-17.565-25.808c-.163-.239-.335-.471-.519-.695-6.313-7.738-15.661-12.177-25.647-12.177h-94.401c-10.151 0-19.596 4.558-25.912 12.504-.18.226-.35.46-.509.701l-16.868 25.474h-17.462c-5.523 0-10 4.477-10 10v51.292c0 5.523 4.477 10 10 10h213.963c5.523 0 10-4.477 10-10v-51.292c0-5.522-4.477-9.999-10-9.999zm-163.23-14.021c2.496-2.966 6.125-4.659 10.018-4.659h94.401c3.828 0 7.418 1.647 9.91 4.533l9.628 14.146h-133.241zm153.23 65.313h-193.963v-31.292h12.834 170.76 10.369z"/><path d="m386.251 327.05v27.299c0 5.523 4.477 10 10 10s10-4.477 10-10v-27.299c0-5.523-4.477-10-10-10s-10 4.477-10 10z"/><path d="m434.977 362.283c1.815 1.393 3.956 2.066 6.08 2.066 3.003 0 5.973-1.347 7.941-3.914l28.631-37.32c3.362-4.382 2.535-10.659-1.847-14.021-4.381-3.361-10.659-2.534-14.021 1.847l-28.631 37.32c-3.362 4.383-2.535 10.66 1.847 14.022z"/><path d="m102.28 401.053c-1.638-3.932-5.72-6.461-9.971-6.144-4.351.324-8.045 3.531-9.015 7.778-1.993 8.735 8.177 15.482 15.498 10.366 3.796-2.652 5.24-7.725 3.488-12z"/></svg>